<?xml version="1.0" encoding="UTF-8" standalone="no"?>
<svg
   width="32"
   height="32"
   viewBox="0 0 24 24"
   version="1.1"
   id="svg1"
   sodipodi:docname="MaterialSymbolsCallOutline.svg"
   inkscape:version="1.3 (0e150ed6c4, 2023-07-21)"
   xmlns:inkscape="http://www.inkscape.org/namespaces/inkscape"
   xmlns:sodipodi="http://sodipodi.sourceforge.net/DTD/sodipodi-0.dtd"
   xmlns="http://www.w3.org/2000/svg"
   xmlns:svg="http://www.w3.org/2000/svg">
  <defs
     id="defs1" />
  <sodipodi:namedview
     id="namedview1"
     pagecolor="#ffffff"
     bordercolor="#000000"
     borderopacity="0.25"
     inkscape:showpageshadow="2"
     inkscape:pageopacity="0.0"
     inkscape:pagecheckerboard="0"
     inkscape:deskcolor="#d1d1d1"
     inkscape:zoom="25.96875"
     inkscape:cx="16"
     inkscape:cy="16"
     inkscape:window-width="1920"
     inkscape:window-height="1027"
     inkscape:window-x="-8"
     inkscape:window-y="-8"
     inkscape:window-maximized="1"
     inkscape:current-layer="svg1" />
  <path
     fill="currentColor"
     d="M19.95 21q-3.125 0-6.175-1.363t-5.55-3.862q-2.5-2.5-3.862-5.55T3 4.05q0-.45.3-.75t.75-.3H8.1q.35 0 .625.238t.325.562l.65 3.5q.05.4-.025.675T9.4 8.45L6.975 10.9q.5.925 1.187 1.787t1.513 1.663q.775.775 1.625 1.438T13.1 17l2.35-2.35q.225-.225.588-.338t.712-.062l3.45.7q.35.1.575.363T21 15.9v4.05q0 .45-.3.75t-.75.3ZM6.025 9l1.65-1.65L7.25 5H5.025q.125 1.025.35 2.025T6.025 9Zm8.95 8.95q.975.425 1.988.675T19 18.95v-2.2l-2.35-.475l-1.675 1.675ZM6.025 9Zm8.95 8.95Z"
     id="path1"
     style="fill:#ffffff;fill-opacity:1" />
</svg>
